<svg id="Layer_1" data-name="Layer 1" xmlns="http://www.w3.org/2000/svg" width="64" height="64" viewBox="0 0 64 64"><defs><style>.cls-1{fill:#666;}</style></defs><title>mac</title><path class="cls-1" d="M26.24,48a1,1,0,0,0-1.21.73l-1,4s0,0.08,0,.12S24,53,24,53s0,0.08,0,.13v0A3,3,0,0,0,27,56H37a3,3,0,0,0,3-2.83v0S40,53,40,53s0-.08,0-0.12a0.49,0.49,0,0,0,0-.12l-1-4a1,1,0,1,0-1.94.48l1,3.83A1,1,0,0,1,37,54H27a1,1,0,0,1-1-.93l1-3.83A1,1,0,0,0,26.24,48Z"/><path class="cls-1" d="M8,46H56a4,4,0,0,0,4-4V12a4,4,0,0,0-4-4H8a4,4,0,0,0-4,4V42A4,4,0,0,0,8,46Zm48-2H8a2,2,0,0,1-2-2V36H58v6A2,2,0,0,1,56,44ZM8,10H56a2,2,0,0,1,2,2V34H6V12A2,2,0,0,1,8,10Z"/><circle class="cls-1" cx="32" cy="40" r="2"/></svg>