<svg id="Layer_1" data-name="Layer 1" xmlns="http://www.w3.org/2000/svg" width="64" height="64" viewBox="0 0 64 64"><defs><style>.cls-1{fill:#666;}</style></defs><title>jewel</title><path class="cls-1" d="M4,21.1a1,1,0,0,0,.05.23l0.07,0.15a0.67,0.67,0,0,0,.06.12l27,36h0a1,1,0,0,0,.31.26l0.09,0a1,1,0,0,0,.4.1,1.11,1.11,0,0,0,.4-0.09l0.09,0a1,1,0,0,0,.31-0.26h0l27-36a0.67,0.67,0,0,0,.06-0.12,1,1,0,0,0,.07-0.15,1,1,0,0,0,0-.23S60,21,60,21s0,0,0,0a1.28,1.28,0,0,0,0-.27s0-.07,0-0.1a0.94,0.94,0,0,0-.2-0.29s0,0,0,0l-14-14a1,1,0,0,0-.32-0.22A1.09,1.09,0,0,0,45,6H19a1,1,0,0,0-.38.08,0.87,0.87,0,0,0-.32.22l-14,14a0,0,0,0,0,0,0,0.94,0.94,0,0,0-.21.28s0,0.06,0,.1A0.86,0.86,0,0,0,4,21s0,0,0,0S4,21.07,4,21.1ZM43.58,22L32,54.06,20.42,22H43.58ZM21.29,20L32,8.47,42.71,20H21.29ZM45.7,22H57L35.21,51ZM46,20V9.41L56.59,20H46Zm-2-1.55L34.29,8H44V18.45Zm-24,0V8h9.71ZM18,20H7.41L18,9.41V20Zm0.3,2L28.79,51,7,22H18.3Z"/></svg>