<svg id="Layer_1" data-name="Layer 1" xmlns="http://www.w3.org/2000/svg" width="24" height="24" viewBox="0 0 24 24"><title>ww</title><path d="M22.51,10.31H21.74v3.82h0.77a0.68,0.68,0,0,0,.67-0.72V11A0.68,0.68,0,0,0,22.51,10.31Z"/><path d="M2.89,17.48H19.58a1.69,1.69,0,0,0,1.69-1.69V8.66A1.69,1.69,0,0,0,19.58,7H2.89A1.69,1.69,0,0,0,1.21,8.66v7.14A1.69,1.69,0,0,0,2.89,17.48ZM2.16,8.66a0.73,0.73,0,0,1,.73-0.73H19.58a0.73,0.73,0,0,1,.73.73v7.14a0.73,0.73,0,0,1-.73.73H2.89a0.73,0.73,0,0,1-.73-0.73V8.66Z"/><path d="M13.63,8.74H3.83a0.68,0.68,0,0,0-.68.68v5.69a0.68,0.68,0,0,0,.68.68h9.8a0.68,0.68,0,0,0,.68-0.68V9.42A0.68,0.68,0,0,0,13.63,8.74Z"/></svg>