<svg id="Layer_1" data-name="Layer 1" xmlns="http://www.w3.org/2000/svg" width="64" height="64" viewBox="0 0 64 64"><defs><style>.cls-1{fill:#666;}</style></defs><title>coffee_cup</title><path class="cls-1" d="M16,20a1,1,0,0,1,0-2,2,2,0,0,0,2-2c0-.79-0.65-1.42-1.72-2.37-0.33-.29-0.66-0.6-1-0.92s-0.51-.48-0.79-0.73C13.39,11,12,9.74,12,8a4,4,0,0,1,4-4,1,1,0,0,1,0,2,2,2,0,0,0-2,2c0,0.85.93,1.68,1.84,2.49,0.31,0.27.6,0.54,0.87,0.81s0.6,0.57.91,0.84C18.79,13.19,20,14.27,20,16A4,4,0,0,1,16,20Zm10,0a1,1,0,0,1,0-2,2,2,0,0,0,2-2c0-.79-0.65-1.42-1.72-2.37-0.33-.29-0.67-0.6-1-0.92s-0.51-.48-0.79-0.73C23.39,11,22,9.74,22,8a4,4,0,0,1,4-4,1,1,0,0,1,0,2,2,2,0,0,0-2,2c0,0.85.93,1.68,1.84,2.49,0.31,0.27.6,0.54,0.87,0.81s0.6,0.57.91,0.84C28.79,13.19,30,14.27,30,16A4,4,0,0,1,26,20Zm10,0a1,1,0,0,1,0-2,2,2,0,0,0,2-2c0-.79-0.65-1.42-1.72-2.37-0.33-.29-0.66-0.6-1-0.92s-0.51-.48-0.79-0.73C33.39,11,32,9.74,32,8a4,4,0,0,1,4-4,1,1,0,0,1,0,2,2,2,0,0,0-2,2c0,0.85.93,1.68,1.84,2.49,0.31,0.27.6,0.54,0.87,0.81s0.6,0.57.91,0.84C38.79,13.19,40,14.27,40,16A4,4,0,0,1,36,20Zm16,4H5a1,1,0,0,0-1,1V40A22.3,22.3,0,0,0,16.57,60c0.13,0.06,18.73.06,18.86,0A22.29,22.29,0,0,0,48,40h4a6,6,0,0,0,6-6V30A6,6,0,0,0,52,24ZM46,40A20.14,20.14,0,0,1,34.77,58H17.23A20.15,20.15,0,0,1,6,40V26H46V40Zm10-6a4,4,0,0,1-4,4H48V26h4a4,4,0,0,1,4,4v4Z"/></svg>